<?xml version="1.0"?><!DOCTYPE svg  PUBLIC '-//W3C//DTD SVG 1.1//EN'  'http://www.w3.org/Graphics/SVG/1.1/DTD/svg11.dtd'><svg enable-background="new 0 0 512 512" height="512px" id="Layer_1" version="1.1" viewBox="0 0 512 512" width="512px" xml:space="preserve" xmlns="http://www.w3.org/2000/svg" xmlns:xlink="http://www.w3.org/1999/xlink"><circle cx="256.333" cy="255.42" fill="#82D0D8" r="256"/><path d="M379,98h-54.033l17.455,48H167.578l17.456-48H131c-8.8,0-16,6.941-16,15.741v312c0,8.8,7.2,16.259,16,16.259  h248c8.8,0,16-7.459,16-16.259v-312C395,104.941,387.8,98,379,98z" fill="#1B7C96"/><rect fill="#004259" height="280" width="232" x="139" y="138"/><rect fill="#065F77" height="280" width="232" x="139" y="130"/><rect fill="#FFFFFF" height="280" width="232" x="139" y="122"/><path d="M299,78h-24c0-11-9-20-20-20s-20,9-20,20h-24c-8.8,0-13.331,7.179-16,16l-16,44h152l-16-44  C312.427,85.325,307.8,78,299,78z" fill="#004259"/><circle cx="255" cy="77.576" fill="#82D0D8" r="12.051"/><path d="M343,182c0,4.418-3.582,8-8,8H175c-4.418,0-8-3.582-8-8l0,0c0-4.418,3.582-8,8-8h160  C339.418,174,343,177.582,343,182L343,182z" fill="#FF5F5F"/><path d="M343,214c0,4.418-3.582,8-8,8H175c-4.418,0-8-3.582-8-8l0,0c0-4.418,3.582-8,8-8h160  C339.418,206,343,209.582,343,214L343,214z" fill="#FF5F5F"/><path d="M343,246c0,4.418-3.582,8-8,8H175c-4.418,0-8-3.582-8-8l0,0c0-4.418,3.582-8,8-8h160  C339.418,238,343,241.582,343,246L343,246z" fill="#FF5F5F"/><path d="M343,302c0,4.418-3.582,8-8,8H175c-4.418,0-8-3.582-8-8l0,0c0-4.418,3.582-8,8-8h160  C339.418,294,343,297.582,343,302L343,302z" fill="#1B7C96"/><path d="M283,334c0,4.418-3.582,8-8,8H175c-4.418,0-8-3.582-8-8l0,0c0-4.418,3.582-8,8-8h100  C279.418,326,283,329.582,283,334L283,334z" fill="#1B7C96"/></svg>