<?xml version="1.0"?><svg id="Layer_1" style="enable-background:new 0 0 64 64;" version="1.1" viewBox="0 0 64 64" xml:space="preserve" xmlns="http://www.w3.org/2000/svg" xmlns:xlink="http://www.w3.org/1999/xlink"><style type="text/css">
	.st0{fill:#2D7ABE;}
	.st1{fill:#3C4652;}
	.st2{fill:#3D4652;}
</style><g><g><path class="st1" d="M27.73,51.903H5.778v-7.024v-4.07V5.499h33.466V8.49c0,1.822,1.483,3.304,3.305,3.304h3.136v15.252    c0.384-0.022,0.764-0.058,1.154-0.058c1.465,0,2.889,0.171,4.264,0.475V9.524c0-0.838-0.344-1.655-0.943-2.242l-6.111-5.974    c-0.589-0.576-1.367-0.893-2.191-0.893H3.495c-1.728,0-3.135,1.406-3.135,3.135v37.258v4.07v8.973    c0,1.728,1.406,3.136,3.135,3.136h26.401C28.949,55.419,28.216,53.714,27.73,51.903z"/></g><g><path class="st1" d="M40.417,22.982H26.956c-1.26,0-2.281-1.021-2.281-2.281c0-1.26,1.021-2.281,2.281-2.281h13.461    c1.26,0,2.281,1.021,2.281,2.281C42.698,21.961,41.677,22.982,40.417,22.982z"/><path class="st0" d="M19.255,15.134C19.254,15.134,19.254,15.134,19.255,15.134c-0.636,0-1.226,0.253-1.651,0.702l-3.775,3.737    l-1.047-1.015c-0.436-0.459-1.025-0.712-1.66-0.712c0,0,0,0-0.001,0c-0.635,0-1.225,0.253-1.643,0.694    c-0.459,0.436-0.712,1.026-0.712,1.661s0.253,1.225,0.703,1.652l2.693,2.691c0.412,0.459,1.021,0.723,1.671,0.723    s1.258-0.264,1.651-0.702l5.413-5.414c0.46-0.437,0.714-1.026,0.714-1.662c0-0.631-0.25-1.217-0.704-1.652    C20.471,15.384,19.885,15.134,19.255,15.134z"/><path class="st0" d="M19.255,26.634C19.254,26.634,19.254,26.634,19.255,26.634c-0.636,0-1.226,0.253-1.651,0.702l-3.775,3.737    l-1.047-1.015c-0.436-0.459-1.025-0.712-1.66-0.712c0,0,0,0-0.001,0c-0.635,0-1.225,0.253-1.643,0.694    c-0.459,0.436-0.712,1.026-0.712,1.661s0.253,1.225,0.703,1.652l2.693,2.691c0.412,0.459,1.021,0.723,1.671,0.723    s1.258-0.264,1.651-0.702l5.413-5.414c0.46-0.437,0.714-1.026,0.714-1.662c0-0.631-0.25-1.217-0.704-1.652    C20.471,26.884,19.885,26.634,19.255,26.634z"/><path class="st1" d="M36.521,29.92h-9.565c-1.26,0-2.281,1.021-2.281,2.281s1.021,2.281,2.281,2.281h4.397    C32.793,32.674,34.544,31.133,36.521,29.92z"/><g><path class="st1" d="M27.796,41.42h-16.84c-1.26,0-2.281,1.021-2.281,2.281s1.021,2.281,2.281,2.281h16.121     C27.141,44.407,27.384,42.88,27.796,41.42z"/></g></g><path class="st0" d="M55.243,32.241c-8.021-4.631-18.317-1.873-22.949,6.149c-2.244,3.886-2.839,8.413-1.678,12.747   s3.941,7.957,7.827,10.201c2.638,1.524,5.523,2.247,8.371,2.247c5.81,0,11.468-3.013,14.577-8.396   C66.024,47.166,63.265,36.871,55.243,32.241z M34.211,39.703c0.426-0.741,1.374-0.995,2.114-0.566l0.793,0.458   c0.74,0.426,0.994,1.374,0.566,2.114c-0.286,0.497-0.806,0.774-1.341,0.774c-0.263,0-0.529-0.067-0.773-0.208l-0.793-0.458   C34.038,41.391,33.784,40.444,34.211,39.703z M37.296,54.289l-0.794,0.459c-0.244,0.141-0.51,0.208-0.773,0.208   c-0.534,0-1.055-0.277-1.341-0.774c-0.427-0.741-0.174-1.687,0.566-2.114l0.794-0.459c0.739-0.427,1.687-0.175,2.114,0.566   C38.29,52.916,38.037,53.862,37.296,54.289z M56.381,39.289l0.794-0.459c0.74-0.427,1.687-0.175,2.114,0.566   c0.427,0.741,0.174,1.687-0.566,2.114l-0.794,0.459c-0.244,0.141-0.51,0.208-0.773,0.208c-0.534,0-1.055-0.277-1.341-0.774   C55.387,40.662,55.64,39.716,56.381,39.289z M45.113,33.858c0-0.855,0.693-1.548,1.548-1.548s1.548,0.693,1.548,1.548v0.917   c0,0.855-0.693,1.548-1.548,1.548s-1.548-0.693-1.548-1.548V33.858z M48.563,59.72c0,0.855-0.693,1.548-1.548,1.548   s-1.548-0.693-1.548-1.548v-0.917c0-0.855,0.693-1.548,1.548-1.548s1.548,0.693,1.548,1.548V59.72z M53.997,49.111h-4.393   c-0.666,0.792-1.651,1.306-2.767,1.306c-2.004,0-3.629-1.625-3.629-3.629c0-0.416,0.084-0.809,0.213-1.181l-3.264-5.84   c-0.556-0.995-0.2-2.252,0.795-2.809c0.995-0.554,2.253-0.2,2.809,0.795l3.024,5.411c0.018,0,0.034-0.005,0.052-0.005   c1.116,0,2.102,0.515,2.768,1.307h4.392c1.282,0,2.322,1.04,2.322,2.322C56.319,48.071,55.279,49.111,53.997,49.111z    M59.467,53.874c-0.286,0.497-0.807,0.775-1.342,0.775c-0.263,0-0.528-0.067-0.772-0.207l-0.794-0.458   c-0.741-0.427-0.995-1.374-0.568-2.114c0.426-0.741,1.374-0.995,2.114-0.568l0.794,0.458   C59.639,52.187,59.893,53.133,59.467,53.874z"/></g></svg>